<svg width="103" height="21" viewBox="0 0 103 21" fill="none" xmlns="http://www.w3.org/2000/svg">
<path d="M9.68 6.368C11.232 6.368 12.44 6.888 13.304 7.928C14.184 8.968 14.624 10.376 14.624 12.152V20H9.32V12.824C9.32 12.184 9.144 11.68 8.792 11.312C8.456 10.928 8 10.736 7.424 10.736C6.832 10.736 6.368 10.928 6.032 11.312C5.696 11.68 5.528 12.184 5.528 12.824V20H0.2V6.464H5.528V8.528C5.944 7.888 6.496 7.368 7.184 6.968C7.888 6.568 8.72 6.368 9.68 6.368ZM30.0384 13.112C30.0384 13.48 30.0144 13.832 29.9664 14.168H21.3984C21.4784 15.336 21.9664 15.92 22.8624 15.92C23.4384 15.92 23.8544 15.656 24.1104 15.128H29.7504C29.5584 16.088 29.1504 16.952 28.5264 17.72C27.9184 18.472 27.1424 19.072 26.1984 19.52C25.2704 19.952 24.2464 20.168 23.1264 20.168C21.7824 20.168 20.5824 19.888 19.5264 19.328C18.4864 18.768 17.6704 17.968 17.0784 16.928C16.5024 15.872 16.2144 14.64 16.2144 13.232C16.2144 11.824 16.5024 10.6 17.0784 9.56C17.6704 8.504 18.4864 7.696 19.5264 7.136C20.5824 6.576 21.7824 6.296 23.1264 6.296C24.4704 6.296 25.6624 6.576 26.7024 7.136C27.7584 7.68 28.5744 8.464 29.1504 9.488C29.7424 10.512 30.0384 11.72 30.0384 13.112ZM24.6384 11.84C24.6384 11.392 24.4944 11.056 24.2064 10.832C23.9184 10.592 23.5584 10.472 23.1264 10.472C22.1824 10.472 21.6304 10.928 21.4704 11.84H24.6384ZM41.9954 20L37.0514 12.632V20H31.7234V3.008H37.0514V10.16L41.9234 3.008H47.9474L42.0914 11.144L48.3314 20H41.9954ZM52.5286 5.384C51.6006 5.384 50.8566 5.136 50.2966 4.64C49.7366 4.144 49.4566 3.52 49.4566 2.768C49.4566 2 49.7366 1.368 50.2966 0.871999C50.8566 0.359999 51.6006 0.103999 52.5286 0.103999C53.4406 0.103999 54.1766 0.359999 54.7366 0.871999C55.2966 1.368 55.5766 2 55.5766 2.768C55.5766 3.52 55.2966 4.144 54.7366 4.64C54.1766 5.136 53.4406 5.384 52.5286 5.384ZM55.1686 6.464V20H49.8406V6.464H55.1686ZM71.471 8.84C71.471 9.912 71.223 10.888 70.727 11.768C70.231 12.632 69.495 13.32 68.519 13.832C67.559 14.344 66.391 14.6 65.015 14.6H62.903V20H57.575V3.008H65.015C67.095 3.008 68.687 3.536 69.791 4.592C70.911 5.648 71.471 7.064 71.471 8.84ZM64.415 10.4C65.519 10.4 66.071 9.88 66.071 8.84C66.071 7.8 65.519 7.28 64.415 7.28H62.903V10.4H64.415ZM79.5929 20.168C78.2329 20.168 77.0089 19.888 75.9209 19.328C74.8329 18.768 73.9769 17.968 73.3529 16.928C72.7449 15.872 72.4409 14.64 72.4409 13.232C72.4409 11.824 72.7449 10.6 73.3529 9.56C73.9769 8.504 74.8329 7.696 75.9209 7.136C77.0089 6.576 78.2329 6.296 79.5929 6.296C80.9529 6.296 82.1769 6.576 83.2649 7.136C84.3529 7.696 85.2009 8.504 85.8089 9.56C86.4329 10.6 86.7449 11.824 86.7449 13.232C86.7449 14.64 86.4329 15.872 85.8089 16.928C85.2009 17.968 84.3529 18.768 83.2649 19.328C82.1769 19.888 80.9529 20.168 79.5929 20.168ZM79.5929 15.56C80.0889 15.56 80.5049 15.368 80.8409 14.984C81.1769 14.584 81.3449 14 81.3449 13.232C81.3449 12.464 81.1769 11.888 80.8409 11.504C80.5049 11.104 80.0889 10.904 79.5929 10.904C79.0969 10.904 78.6809 11.104 78.3449 11.504C78.0089 11.888 77.8409 12.464 77.8409 13.232C77.8409 14 78.0009 14.584 78.3209 14.984C78.6569 15.368 79.0809 15.56 79.5929 15.56ZM87.6988 13.232C87.6988 11.808 87.9388 10.576 88.4188 9.536C88.9148 8.48 89.5868 7.68 90.4348 7.136C91.2828 6.576 92.2348 6.296 93.2908 6.296C94.1708 6.296 94.9228 6.48 95.5468 6.848C96.1868 7.2 96.6748 7.688 97.0108 8.312V2.24H102.339V20H97.0108V18.152C96.6748 18.776 96.1868 19.272 95.5468 19.64C94.9228 19.992 94.1708 20.168 93.2908 20.168C92.2348 20.168 91.2828 19.896 90.4348 19.352C89.5868 18.792 88.9148 17.992 88.4188 16.952C87.9388 15.896 87.6988 14.656 87.6988 13.232ZM97.0348 13.232C97.0348 12.512 96.8508 11.952 96.4828 11.552C96.1148 11.152 95.6428 10.952 95.0668 10.952C94.4908 10.952 94.0188 11.152 93.6508 11.552C93.2828 11.952 93.0988 12.512 93.0988 13.232C93.0988 13.952 93.2828 14.512 93.6508 14.912C94.0188 15.312 94.4908 15.512 95.0668 15.512C95.6428 15.512 96.1148 15.312 96.4828 14.912C96.8508 14.512 97.0348 13.952 97.0348 13.232Z" fill="#E7E7E7"/>
<path d="M13.304 7.928L12.5348 8.56705L12.5406 8.57394L13.304 7.928ZM14.624 20V21H15.624V20H14.624ZM9.32 20H8.32V21H9.32V20ZM8.792 11.312L8.03942 11.9705L8.05403 11.9872L8.06936 12.0032L8.792 11.312ZM6.032 11.312L6.77049 11.9863L6.77761 11.9785L6.78458 11.9705L6.032 11.312ZM5.528 20V21H6.528V20H5.528ZM0.2 20H-0.8V21H0.2V20ZM0.2 6.464V5.464H-0.8V6.464H0.2ZM5.528 6.464H6.528V5.464H5.528V6.464ZM5.528 8.528H4.528V11.9014L6.36644 9.07299L5.528 8.528ZM7.184 6.968L6.68997 6.0985L6.68138 6.10349L7.184 6.968ZM9.68 7.368C10.9839 7.368 11.8901 7.79103 12.5348 8.56702L14.0732 7.28898C12.9899 5.98497 11.4801 5.368 9.68 5.368V7.368ZM12.5406 8.57394C13.2265 9.38455 13.624 10.5395 13.624 12.152H15.624C15.624 10.2125 15.1415 8.55145 14.0674 7.28206L12.5406 8.57394ZM13.624 12.152V20H15.624V12.152H13.624ZM14.624 19H9.32V21H14.624V19ZM10.32 20V12.824H8.32V20H10.32ZM10.32 12.824C10.32 11.9957 10.0874 11.2195 9.51464 10.6208L8.06936 12.0032C8.20064 12.1405 8.32 12.3723 8.32 12.824H10.32ZM9.54458 10.6535C8.99302 10.0231 8.24694 9.736 7.424 9.736V11.736C7.75306 11.736 7.91898 11.8329 8.03942 11.9705L9.54458 10.6535ZM7.424 9.736C6.59471 9.736 5.83654 10.0168 5.27942 10.6535L6.78458 11.9705C6.89946 11.8392 7.06929 11.736 7.424 11.736V9.736ZM5.29351 10.6377C4.74567 11.2377 4.528 12.0077 4.528 12.824H6.528C6.528 12.3603 6.64633 12.1223 6.77049 11.9863L5.29351 10.6377ZM4.528 12.824V20H6.528V12.824H4.528ZM5.528 19H0.2V21H5.528V19ZM1.2 20V6.464H-0.8V20H1.2ZM0.2 7.464H5.528V5.464H0.2V7.464ZM4.528 6.464V8.528H6.528V6.464H4.528ZM6.36644 9.07299C6.6934 8.56998 7.12809 8.15723 7.68662 7.83251L6.68138 6.10349C5.86391 6.57877 5.1946 7.20602 4.68956 7.98301L6.36644 9.07299ZM7.67801 7.83746C8.20566 7.53765 8.86094 7.368 9.68 7.368V5.368C8.57906 5.368 7.57034 5.59835 6.68999 6.09854L7.67801 7.83746ZM29.9664 14.168V15.168H30.8337L30.9563 14.3094L29.9664 14.168ZM21.3984 14.168V13.168H20.3275L20.4007 14.2363L21.3984 14.168ZM24.1104 15.128V14.128H23.4839L23.2106 14.6917L24.1104 15.128ZM29.7504 15.128L30.731 15.3241L30.9702 14.128H29.7504V15.128ZM28.5264 17.72L27.7503 17.0894L27.7487 17.0913L28.5264 17.72ZM26.1984 19.52L26.6204 20.4266L26.6271 20.4234L26.1984 19.52ZM19.5264 19.328L19.0523 20.2085L19.0579 20.2115L19.5264 19.328ZM17.0784 16.928L16.2005 17.4069L16.2048 17.4148L16.2093 17.4227L17.0784 16.928ZM17.0784 9.56L16.2061 9.07099L16.2036 9.0755L17.0784 9.56ZM19.5264 7.136L19.0579 6.25252L19.0523 6.25553L19.5264 7.136ZM26.7024 7.136L26.2283 8.01647L26.2363 8.0208L26.2444 8.02497L26.7024 7.136ZM29.1504 9.488L28.2787 9.97829L28.2846 9.9885L29.1504 9.488ZM24.6384 11.84V12.84H25.6384V11.84H24.6384ZM24.2064 10.832L23.5662 11.6002L23.5791 11.611L23.5924 11.6214L24.2064 10.832ZM21.4704 11.84L20.4854 11.6672L20.2797 12.84H21.4704V11.84ZM29.0384 13.112C29.0384 13.4366 29.0172 13.7411 28.9764 14.0266L30.9563 14.3094C31.0115 13.9229 31.0384 13.5234 31.0384 13.112H29.0384ZM29.9664 13.168H21.3984V15.168H29.9664V13.168ZM20.4007 14.2363C20.4479 14.9246 20.6226 15.6033 21.057 16.1232C21.5255 16.6838 22.1764 16.92 22.8624 16.92V14.92C22.7466 14.92 22.6843 14.9012 22.6556 14.8892C22.6314 14.8789 22.613 14.8663 22.5917 14.8408C22.5382 14.7767 22.4289 14.5794 22.396 14.0997L20.4007 14.2363ZM22.8624 16.92C23.3075 16.92 23.7485 16.8162 24.1422 16.5663C24.5348 16.3172 24.8168 15.9632 25.0102 15.5643L23.2106 14.6917C23.148 14.8208 23.0939 14.8628 23.0706 14.8777C23.0483 14.8918 22.9933 14.92 22.8624 14.92V16.92ZM24.1104 16.128H29.7504V14.128H24.1104V16.128ZM28.7698 14.9319C28.61 15.7308 28.273 16.4461 27.7503 17.0894L29.3025 18.3506C30.0278 17.4579 30.5067 16.4452 30.731 15.3241L28.7698 14.9319ZM27.7487 17.0913C27.2424 17.7175 26.5893 18.2276 25.7696 18.6166L26.6271 20.4234C27.6954 19.9164 28.5943 19.2265 29.304 18.3487L27.7487 17.0913ZM25.7763 18.6134C24.9926 18.9783 24.1145 19.168 23.1264 19.168V21.168C24.3783 21.168 25.5482 20.9257 26.6204 20.4266L25.7763 18.6134ZM23.1264 19.168C21.9251 19.168 20.8894 18.9189 19.9949 18.4445L19.0579 20.2115C20.2753 20.8571 21.6396 21.168 23.1264 21.168V19.168ZM20.0005 18.4475C19.128 17.9777 18.4479 17.3125 17.9474 16.4333L16.2093 17.4227C16.8929 18.6235 17.8447 19.5583 19.0523 20.2085L20.0005 18.4475ZM17.9563 16.4491C17.4731 15.5633 17.2144 14.5013 17.2144 13.232H15.2144C15.2144 14.7787 15.5317 16.1807 16.2005 17.4069L17.9563 16.4491ZM17.2144 13.232C17.2144 11.9622 17.4732 10.9111 17.9532 10.0445L16.2036 9.0755C15.5315 10.2889 15.2144 11.6858 15.2144 13.232H17.2144ZM17.9507 10.049C18.4522 9.15429 19.132 8.4841 20.0005 8.01647L19.0523 6.25553C17.8407 6.9079 16.8885 7.8537 16.2061 9.07099L17.9507 10.049ZM19.9949 8.01946C20.8894 7.54509 21.9251 7.296 23.1264 7.296V5.296C21.6396 5.296 20.2753 5.60691 19.0579 6.25254L19.9949 8.01946ZM23.1264 7.296C24.328 7.296 25.353 7.54518 26.2283 8.01647L27.1765 6.25553C25.9717 5.60682 24.6128 5.296 23.1264 5.296V7.296ZM26.2444 8.02497C27.1286 8.48044 27.7998 9.12676 28.2788 9.97826L30.022 8.99774C29.3489 7.80124 28.3882 6.87956 27.1603 6.24703L26.2444 8.02497ZM28.2846 9.9885C28.7742 10.8354 29.0384 11.8644 29.0384 13.112H31.0384C31.0384 11.5756 30.7105 10.1886 30.0161 8.9875L28.2846 9.9885ZM25.6384 11.84C25.6384 11.1614 25.4074 10.4993 24.8203 10.0426L23.5924 11.6214C23.6026 11.6293 23.6057 11.6331 23.6112 11.6459C23.6193 11.6647 23.6384 11.7217 23.6384 11.84H25.6384ZM24.8466 10.0638C24.3519 9.65158 23.7547 9.472 23.1264 9.472V11.472C23.362 11.472 23.4848 11.5324 23.5662 11.6002L24.8466 10.0638ZM23.1264 9.472C22.4966 9.472 21.8729 9.62552 21.3675 10.043C20.8597 10.4626 20.5942 11.0469 20.4854 11.6672L22.4553 12.0128C22.5065 11.7211 22.5971 11.6214 22.6413 11.585C22.6878 11.5465 22.8121 11.472 23.1264 11.472V9.472ZM21.4704 12.84H24.6384V10.84H21.4704V12.84ZM41.9954 20L41.1651 20.5572L41.4622 21H41.9954V20ZM37.0514 12.632L37.8818 12.0748L36.0514 9.347V12.632H37.0514ZM37.0514 20V21H38.0514V20H37.0514ZM31.7234 20H30.7234V21H31.7234V20ZM31.7234 3.008V2.008H30.7234V3.008H31.7234ZM37.0514 3.008H38.0514V2.008H37.0514V3.008ZM37.0514 10.16H36.0514V13.4042L37.8779 10.723L37.0514 10.16ZM41.9234 3.008V2.008H41.3947L41.097 2.44501L41.9234 3.008ZM47.9474 3.008L48.7591 3.59218L49.8993 2.008H47.9474V3.008ZM42.0914 11.144L41.2798 10.5598L40.8638 11.1378L41.274 11.72L42.0914 11.144ZM48.3314 20V21H50.2593L49.1489 19.424L48.3314 20ZM42.8258 19.4428L37.8818 12.0748L36.2211 13.1892L41.1651 20.5572L42.8258 19.4428ZM36.0514 12.632V20H38.0514V12.632H36.0514ZM37.0514 19H31.7234V21H37.0514V19ZM32.7234 20V3.008H30.7234V20H32.7234ZM31.7234 4.008H37.0514V2.008H31.7234V4.008ZM36.0514 3.008V10.16H38.0514V3.008H36.0514ZM37.8779 10.723L42.7499 3.57099L41.097 2.44501L36.225 9.59701L37.8779 10.723ZM41.9234 4.008H47.9474V2.008H41.9234V4.008ZM47.1358 2.42382L41.2798 10.5598L42.9031 11.7282L48.7591 3.59218L47.1358 2.42382ZM41.274 11.72L47.514 20.576L49.1489 19.424L42.9089 10.568L41.274 11.72ZM48.3314 19H41.9954V21H48.3314V19ZM50.2966 4.64L50.9597 3.89141L50.9597 3.89141L50.2966 4.64ZM50.2966 0.871999L50.9597 1.62059L50.9656 1.61535L50.9714 1.61003L50.2966 0.871999ZM54.7366 0.871999L54.0619 1.61003L54.0677 1.61535L54.0736 1.62059L54.7366 0.871999ZM54.7366 4.64L54.0736 3.89141L54.0736 3.89141L54.7366 4.64ZM55.1686 6.464H56.1686V5.464H55.1686V6.464ZM55.1686 20V21H56.1686V20H55.1686ZM49.8406 20H48.8406V21H49.8406V20ZM49.8406 6.464V5.464H48.8406V6.464H49.8406ZM52.5286 4.384C51.7838 4.384 51.2957 4.18904 50.9597 3.89141L49.6336 5.38859C50.4176 6.08296 51.4174 6.384 52.5286 6.384V4.384ZM50.9597 3.89141C50.6152 3.58635 50.4566 3.23547 50.4566 2.768H48.4566C48.4566 3.80453 48.858 4.70165 49.6336 5.38859L50.9597 3.89141ZM50.4566 2.768C50.4566 2.27755 50.6204 1.92109 50.9597 1.62059L49.6336 0.123411C48.8529 0.814907 48.4566 1.72245 48.4566 2.768H50.4566ZM50.9714 1.61003C51.3081 1.30223 51.7919 1.104 52.5286 1.104V-0.896001C51.4093 -0.896001 50.4052 -0.582229 49.6219 0.13397L50.9714 1.61003ZM52.5286 1.104C53.2441 1.104 53.722 1.29931 54.0619 1.61003L55.4114 0.13397C54.6312 -0.579316 53.6371 -0.896001 52.5286 -0.896001V1.104ZM54.0736 1.62059C54.4129 1.92109 54.5766 2.27755 54.5766 2.768H56.5766C56.5766 1.72245 56.1804 0.814907 55.3997 0.123411L54.0736 1.62059ZM54.5766 2.768C54.5766 3.23547 54.418 3.58635 54.0736 3.89141L55.3997 5.38859C56.1752 4.70165 56.5766 3.80453 56.5766 2.768H54.5766ZM54.0736 3.89141C53.7344 4.1918 53.2523 4.384 52.5286 4.384V6.384C53.6289 6.384 54.6188 6.0802 55.3997 5.38859L54.0736 3.89141ZM54.1686 6.464V20H56.1686V6.464H54.1686ZM55.1686 19H49.8406V21H55.1686V19ZM50.8406 20V6.464H48.8406V20H50.8406ZM49.8406 7.464H55.1686V5.464H49.8406V7.464ZM70.727 11.768L71.5943 12.2659L71.5982 12.259L70.727 11.768ZM68.519 13.832L68.0544 12.9464L68.0484 12.9496L68.519 13.832ZM62.903 14.6V13.6H61.903V14.6H62.903ZM62.903 20V21H63.903V20H62.903ZM57.575 20H56.575V21H57.575V20ZM57.575 3.008V2.008H56.575V3.008H57.575ZM69.791 4.592L69.0998 5.31466L69.105 5.31959L69.791 4.592ZM62.903 7.28V6.28H61.903V7.28H62.903ZM62.903 10.4H61.903V11.4H62.903V10.4ZM70.471 8.84C70.471 9.75087 70.2622 10.5561 69.8558 11.277L71.5982 12.259C72.1838 11.2199 72.471 10.0731 72.471 8.84H70.471ZM69.8597 11.2701C69.4683 11.952 68.8806 12.5131 68.0545 12.9465L68.9836 14.7175C70.1094 14.1269 70.9937 13.312 71.5943 12.2659L69.8597 11.2701ZM68.0484 12.9496C67.2666 13.3666 66.2693 13.6 65.015 13.6V15.6C66.5127 15.6 67.8514 15.3214 68.9896 14.7144L68.0484 12.9496ZM65.015 13.6H62.903V15.6H65.015V13.6ZM61.903 14.6V20H63.903V14.6H61.903ZM62.903 19H57.575V21H62.903V19ZM58.575 20V3.008H56.575V20H58.575ZM57.575 4.008H65.015V2.008H57.575V4.008ZM65.015 4.008C66.9323 4.008 68.2407 4.49288 69.0998 5.31464L70.4822 3.86936C69.1333 2.57912 67.2577 2.008 65.015 2.008V4.008ZM69.105 5.31959C69.9932 6.15707 70.471 7.29311 70.471 8.84H72.471C72.471 6.83489 71.8288 5.13893 70.477 3.86441L69.105 5.31959ZM64.415 11.4C65.1068 11.4 65.8116 11.2382 66.3427 10.7379C66.885 10.227 67.071 9.52992 67.071 8.84H65.071C65.071 9.19008 64.981 9.273 64.9713 9.28211C64.9504 9.30178 64.8272 9.4 64.415 9.4V11.4ZM67.071 8.84C67.071 8.15008 66.885 7.453 66.3427 6.94211C65.8116 6.44178 65.1068 6.28 64.415 6.28V8.28C64.8272 8.28 64.9504 8.37822 64.9713 8.39789C64.981 8.40699 65.071 8.48992 65.071 8.84H67.071ZM64.415 6.28H62.903V8.28H64.415V6.28ZM61.903 7.28V10.4H63.903V7.28H61.903ZM62.903 11.4H64.415V9.4H62.903V11.4ZM75.9209 19.328L76.3786 18.4389L75.9209 19.328ZM73.3529 16.928L72.4863 17.427L72.4908 17.4348L72.4954 17.4425L73.3529 16.928ZM73.3529 9.56L72.492 9.05126L72.4896 9.0553L73.3529 9.56ZM75.9209 7.136L76.3786 8.02514L76.3786 8.02514L75.9209 7.136ZM83.2649 7.136L82.8073 8.02514L82.8073 8.02514L83.2649 7.136ZM85.8089 9.56L84.9423 10.059L84.9468 10.0668L84.9514 10.0745L85.8089 9.56ZM85.8089 16.928L84.948 16.4193L84.9456 16.4233L85.8089 16.928ZM83.2649 19.328L82.8073 18.4389L82.8073 18.4389L83.2649 19.328ZM80.8409 14.984L81.5935 15.6425L81.6002 15.6349L81.6066 15.6272L80.8409 14.984ZM80.8409 11.504L80.0752 12.1472L80.0817 12.1549L80.0884 12.1625L80.8409 11.504ZM78.3449 11.504L79.0975 12.1625L79.1042 12.1549L79.1106 12.1472L78.3449 11.504ZM78.3209 14.984L77.5401 15.6087L77.5538 15.6259L77.5684 15.6425L78.3209 14.984ZM79.5929 19.168C78.3741 19.168 77.3099 18.9182 76.3786 18.4389L75.4633 20.2171C76.708 20.8578 78.0917 21.168 79.5929 21.168V19.168ZM76.3786 18.4389C75.4546 17.9633 74.7377 17.2923 74.2104 16.4135L72.4954 17.4425C73.2161 18.6437 74.2113 19.5727 75.4633 20.2171L76.3786 18.4389ZM74.2196 16.429C73.7117 15.547 73.4409 14.4924 73.4409 13.232H71.4409C71.4409 14.7876 71.7781 16.197 72.4863 17.427L74.2196 16.429ZM73.4409 13.232C73.4409 11.9711 73.7119 10.9274 74.2162 10.0647L72.4896 9.0553C71.778 10.2726 71.4409 11.6769 71.4409 13.232H73.4409ZM74.2139 10.0687C74.7422 9.17459 75.4586 8.49866 76.3786 8.02514L75.4633 6.24686C74.2073 6.89334 73.2117 7.83341 72.492 9.05127L74.2139 10.0687ZM76.3786 8.02514C77.3099 7.5458 78.3741 7.296 79.5929 7.296V5.296C78.0917 5.296 76.708 5.60619 75.4633 6.24686L76.3786 8.02514ZM79.5929 7.296C80.8117 7.296 81.876 7.5458 82.8073 8.02514L83.7226 6.24686C82.4779 5.60619 81.0941 5.296 79.5929 5.296V7.296ZM82.8073 8.02514C83.7251 8.49751 84.4307 9.17039 84.9423 10.059L86.6756 9.06103C85.9712 7.83761 84.9808 6.89449 83.7226 6.24686L82.8073 8.02514ZM84.9514 10.0745C85.4681 10.9355 85.7449 11.9757 85.7449 13.232H87.7449C87.7449 11.6723 87.3978 10.2645 86.6664 9.0455L84.9514 10.0745ZM85.7449 13.232C85.7449 14.4879 85.4682 15.539 84.948 16.4193L86.6699 17.4367C87.3977 16.205 87.7449 14.7921 87.7449 13.232H85.7449ZM84.9456 16.4233C84.4352 17.2965 83.7291 17.9644 82.8073 18.4389L83.7226 20.2171C84.9768 19.5716 85.9667 18.6395 86.6722 17.4327L84.9456 16.4233ZM82.8073 18.4389C81.876 18.9182 80.8117 19.168 79.5929 19.168V21.168C81.0941 21.168 82.4779 20.8578 83.7226 20.2171L82.8073 18.4389ZM79.5929 16.56C80.3866 16.56 81.0739 16.2364 81.5935 15.6425L80.0884 14.3255C79.936 14.4996 79.7912 14.56 79.5929 14.56V16.56ZM81.6066 15.6272C82.1511 14.979 82.3449 14.1278 82.3449 13.232H80.3449C80.3449 13.8722 80.2028 14.189 80.0752 14.3408L81.6066 15.6272ZM82.3449 13.232C82.3449 12.3402 82.1527 11.4846 81.5935 10.8455L80.0884 12.1625C80.2011 12.2914 80.3449 12.5878 80.3449 13.232H82.3449ZM81.6066 10.8608C81.0922 10.2484 80.4019 9.904 79.5929 9.904V11.904C79.776 11.904 79.9177 11.9596 80.0752 12.1472L81.6066 10.8608ZM79.5929 9.904C78.784 9.904 78.0937 10.2484 77.5792 10.8608L79.1106 12.1472C79.2682 11.9596 79.4099 11.904 79.5929 11.904V9.904ZM77.5924 10.8455C77.0331 11.4846 76.8409 12.3402 76.8409 13.232H78.8409C78.8409 12.5878 78.9847 12.2914 79.0975 12.1625L77.5924 10.8455ZM76.8409 13.232C76.8409 14.1184 77.0227 14.9619 77.5401 15.6087L79.1018 14.3593C78.9792 14.2061 78.8409 13.8816 78.8409 13.232H76.8409ZM77.5684 15.6425C78.095 16.2444 78.7937 16.56 79.5929 16.56V14.56C79.3682 14.56 79.2189 14.4916 79.0735 14.3255L77.5684 15.6425ZM88.4188 9.536L87.5136 9.11085L87.5108 9.11694L88.4188 9.536ZM90.4348 7.136L90.9748 7.97777L90.9858 7.97046L90.4348 7.136ZM95.5468 6.848L95.0388 7.70936L95.0517 7.71699L95.0648 7.72421L95.5468 6.848ZM97.0108 8.312L96.1303 8.7861L98.0108 8.312H97.0108ZM97.0108 2.24V1.24H96.0108V2.24H97.0108ZM102.339 2.24H103.339V1.24H102.339V2.24ZM102.339 20V21H103.339V20H102.339ZM97.0108 20H96.0108V21H97.0108V20ZM97.0108 18.152H98.0108L96.1303 17.6779L97.0108 18.152ZM95.5468 19.64L96.0381 20.511L96.0452 20.5069L95.5468 19.64ZM90.4348 19.352L89.8836 20.1865L89.8948 20.1937L90.4348 19.352ZM88.4188 16.952L87.5084 17.3658L87.5122 17.3742L87.5161 17.3825L88.4188 16.952ZM96.4828 11.552L97.2187 10.8749L97.2187 10.8749L96.4828 11.552ZM93.6508 11.552L92.9148 10.8749L92.9148 10.8749L93.6508 11.552ZM88.6988 13.232C88.6988 11.9184 88.9202 10.8358 89.3267 9.95506L87.5108 9.11694C86.9573 10.3162 86.6988 11.6976 86.6988 13.232H88.6988ZM89.3239 9.96114C89.7527 9.04813 90.309 8.40477 90.9747 7.97769L89.8948 6.29431C88.8645 6.95523 88.0768 7.91187 87.5136 9.11086L89.3239 9.96114ZM90.9858 7.97046C91.6637 7.52282 92.4226 7.296 93.2908 7.296V5.296C92.0469 5.296 90.9018 5.62918 89.8837 6.30154L90.9858 7.97046ZM93.2908 7.296C94.0304 7.296 94.5986 7.4498 95.0388 7.70936L96.0547 5.98663C95.2469 5.5102 94.3111 5.296 93.2908 5.296V7.296ZM95.0648 7.72421C95.5415 7.98637 95.8885 8.33714 96.1303 8.7861L97.8912 7.8379C97.461 7.03886 96.832 6.41363 96.0287 5.97178L95.0648 7.72421ZM98.0108 8.312V2.24H96.0108V8.312H98.0108ZM97.0108 3.24H102.339V1.24H97.0108V3.24ZM101.339 2.24V20H103.339V2.24H101.339ZM102.339 19H97.0108V21H102.339V19ZM98.0108 20V18.152H96.0108V20H98.0108ZM96.1303 17.6779C95.8863 18.1309 95.5339 18.4938 95.0483 18.7731L96.0452 20.5069C96.8396 20.0501 97.4632 19.4211 97.8912 18.6261L96.1303 17.6779ZM95.0554 18.769C94.612 19.0192 94.0376 19.168 93.2908 19.168V21.168C94.3039 21.168 95.2335 20.9648 96.0381 20.511L95.0554 18.769ZM93.2908 19.168C92.4165 19.168 91.6536 18.9458 90.9747 18.5103L89.8948 20.1937C90.9119 20.8462 92.053 21.168 93.2908 21.168V19.168ZM90.9858 18.5175C90.309 18.0706 89.7498 17.4199 89.3214 16.5215L87.5161 17.3825C88.0797 18.5641 88.8645 19.5134 89.8837 20.1865L90.9858 18.5175ZM89.3291 16.5382C88.92 15.6382 88.6988 14.545 88.6988 13.232H86.6988C86.6988 14.767 86.9575 16.1538 87.5084 17.3658L89.3291 16.5382ZM98.0348 13.232C98.0348 12.3445 97.8055 11.5128 97.2187 10.8749L95.7468 12.2291C95.896 12.3912 96.0348 12.6795 96.0348 13.232H98.0348ZM97.2187 10.8749C96.649 10.2557 95.9036 9.952 95.0668 9.952V11.952C95.3819 11.952 95.5805 12.0483 95.7468 12.2291L97.2187 10.8749ZM95.0668 9.952C94.2299 9.952 93.4845 10.2557 92.9148 10.8749L94.3867 12.2291C94.553 12.0483 94.7516 11.952 95.0668 11.952V9.952ZM92.9148 10.8749C92.328 11.5128 92.0988 12.3445 92.0988 13.232H94.0988C94.0988 12.6795 94.2375 12.3912 94.3867 12.2291L92.9148 10.8749ZM92.0988 13.232C92.0988 14.1195 92.328 14.9512 92.9148 15.5891L94.3867 14.2349C94.2375 14.0728 94.0988 13.7845 94.0988 13.232H92.0988ZM92.9148 15.5891C93.4845 16.2083 94.2299 16.512 95.0668 16.512V14.512C94.7516 14.512 94.553 14.4157 94.3867 14.2349L92.9148 15.5891ZM95.0668 16.512C95.9036 16.512 96.649 16.2083 97.2187 15.5891L95.7468 14.2349C95.5805 14.4157 95.3819 14.512 95.0668 14.512V16.512ZM97.2187 15.5891C97.8055 14.9512 98.0348 14.1195 98.0348 13.232H96.0348C96.0348 13.7845 95.896 14.0728 95.7468 14.2349L97.2187 15.5891Z" fill="#666666"/>
</svg>
