<svg width="103" height="21" viewBox="0 0 103 21" fill="none" xmlns="http://www.w3.org/2000/svg">
<path d="M9.68 6.368C11.232 6.368 12.44 6.888 13.304 7.928C14.184 8.968 14.624 10.376 14.624 12.152V20H9.32V12.824C9.32 12.184 9.144 11.68 8.792 11.312C8.456 10.928 8 10.736 7.424 10.736C6.832 10.736 6.368 10.928 6.032 11.312C5.696 11.68 5.528 12.184 5.528 12.824V20H0.2V6.464H5.528V8.528C5.944 7.888 6.496 7.368 7.184 6.968C7.888 6.568 8.72 6.368 9.68 6.368ZM30.0384 13.112C30.0384 13.48 30.0144 13.832 29.9664 14.168H21.3984C21.4784 15.336 21.9664 15.92 22.8624 15.92C23.4384 15.92 23.8544 15.656 24.1104 15.128H29.7504C29.5584 16.088 29.1504 16.952 28.5264 17.72C27.9184 18.472 27.1424 19.072 26.1984 19.52C25.2704 19.952 24.2464 20.168 23.1264 20.168C21.7824 20.168 20.5824 19.888 19.5264 19.328C18.4864 18.768 17.6704 17.968 17.0784 16.928C16.5024 15.872 16.2144 14.64 16.2144 13.232C16.2144 11.824 16.5024 10.6 17.0784 9.56C17.6704 8.504 18.4864 7.696 19.5264 7.136C20.5824 6.576 21.7824 6.296 23.1264 6.296C24.4704 6.296 25.6624 6.576 26.7024 7.136C27.7584 7.68 28.5744 8.464 29.1504 9.488C29.7424 10.512 30.0384 11.72 30.0384 13.112ZM24.6384 11.84C24.6384 11.392 24.4944 11.056 24.2064 10.832C23.9184 10.592 23.5584 10.472 23.1264 10.472C22.1824 10.472 21.6304 10.928 21.4704 11.84H24.6384ZM41.9954 20L37.0514 12.632V20H31.7234V3.008H37.0514V10.16L41.9234 3.008H47.9474L42.0914 11.144L48.3314 20H41.9954ZM52.5286 5.384C51.6006 5.384 50.8566 5.136 50.2966 4.64C49.7366 4.144 49.4566 3.52 49.4566 2.768C49.4566 2 49.7366 1.368 50.2966 0.871999C50.8566 0.359999 51.6006 0.103999 52.5286 0.103999C53.4406 0.103999 54.1766 0.359999 54.7366 0.871999C55.2966 1.368 55.5766 2 55.5766 2.768C55.5766 3.52 55.2966 4.144 54.7366 4.64C54.1766 5.136 53.4406 5.384 52.5286 5.384ZM55.1686 6.464V20H49.8406V6.464H55.1686ZM71.471 8.84C71.471 9.912 71.223 10.888 70.727 11.768C70.231 12.632 69.495 13.32 68.519 13.832C67.559 14.344 66.391 14.6 65.015 14.6H62.903V20H57.575V3.008H65.015C67.095 3.008 68.687 3.536 69.791 4.592C70.911 5.648 71.471 7.064 71.471 8.84ZM64.415 10.4C65.519 10.4 66.071 9.88 66.071 8.84C66.071 7.8 65.519 7.28 64.415 7.28H62.903V10.4H64.415ZM79.5929 20.168C78.2329 20.168 77.0089 19.888 75.9209 19.328C74.8329 18.768 73.9769 17.968 73.3529 16.928C72.7449 15.872 72.4409 14.64 72.4409 13.232C72.4409 11.824 72.7449 10.6 73.3529 9.56C73.9769 8.504 74.8329 7.696 75.9209 7.136C77.0089 6.576 78.2329 6.296 79.5929 6.296C80.9529 6.296 82.1769 6.576 83.2649 7.136C84.3529 7.696 85.2009 8.504 85.8089 9.56C86.4329 10.6 86.7449 11.824 86.7449 13.232C86.7449 14.64 86.4329 15.872 85.8089 16.928C85.2009 17.968 84.3529 18.768 83.2649 19.328C82.1769 19.888 80.9529 20.168 79.5929 20.168ZM79.5929 15.56C80.0889 15.56 80.5049 15.368 80.8409 14.984C81.1769 14.584 81.3449 14 81.3449 13.232C81.3449 12.464 81.1769 11.888 80.8409 11.504C80.5049 11.104 80.0889 10.904 79.5929 10.904C79.0969 10.904 78.6809 11.104 78.3449 11.504C78.0089 11.888 77.8409 12.464 77.8409 13.232C77.8409 14 78.0009 14.584 78.3209 14.984C78.6569 15.368 79.0809 15.56 79.5929 15.56ZM87.6988 13.232C87.6988 11.808 87.9388 10.576 88.4188 9.536C88.9148 8.48 89.5868 7.68 90.4348 7.136C91.2828 6.576 92.2348 6.296 93.2908 6.296C94.1708 6.296 94.9228 6.48 95.5468 6.848C96.1868 7.2 96.6748 7.688 97.0108 8.312V2.24H102.339V20H97.0108V18.152C96.6748 18.776 96.1868 19.272 95.5468 19.64C94.9228 19.992 94.1708 20.168 93.2908 20.168C92.2348 20.168 91.2828 19.896 90.4348 19.352C89.5868 18.792 88.9148 17.992 88.4188 16.952C87.9388 15.896 87.6988 14.656 87.6988 13.232ZM97.0348 13.232C97.0348 12.512 96.8508 11.952 96.4828 11.552C96.1148 11.152 95.6428 10.952 95.0668 10.952C94.4908 10.952 94.0188 11.152 93.6508 11.552C93.2828 11.952 93.0988 12.512 93.0988 13.232C93.0988 13.952 93.2828 14.512 93.6508 14.912C94.0188 15.312 94.4908 15.512 95.0668 15.512C95.6428 15.512 96.1148 15.312 96.4828 14.912C96.8508 14.512 97.0348 13.952 97.0348 13.232Z" fill="#666666"/>
<path d="M13.304 7.928L12.9194 8.24752L12.9223 8.25097L13.304 7.928ZM14.624 20V20.5H15.124V20H14.624ZM9.32 20H8.82V20.5H9.32V20ZM8.792 11.312L8.41571 11.6413L8.42301 11.6496L8.43068 11.6576L8.792 11.312ZM6.032 11.312L6.40133 11.6492L6.40829 11.6413L6.032 11.312ZM5.528 20V20.5H6.028V20H5.528ZM0.2 20H-0.3V20.5H0.2V20ZM0.2 6.464V5.964H-0.3V6.464H0.2ZM5.528 6.464H6.028V5.964H5.528V6.464ZM5.528 8.528H5.028V10.2147L5.94722 8.80049L5.528 8.528ZM7.184 6.968L6.93698 6.53325L6.93269 6.53575L7.184 6.968ZM9.68 6.868C11.1079 6.868 12.1651 7.33952 12.9194 8.24751L13.6886 7.60849C12.7149 6.43648 11.3561 5.868 9.68 5.868V6.868ZM12.9223 8.25097C13.7053 9.17628 14.124 10.4578 14.124 12.152H15.124C15.124 10.2942 14.6627 8.75972 13.6857 7.60503L12.9223 8.25097ZM14.124 12.152V20H15.124V12.152H14.124ZM14.624 19.5H9.32V20.5H14.624V19.5ZM9.82 20V12.824H8.82V20H9.82ZM9.82 12.824C9.82 12.0899 9.61568 11.4498 9.15332 10.9664L8.43068 11.6576C8.67232 11.9102 8.82 12.2781 8.82 12.824H9.82ZM9.16829 10.9827C8.72451 10.4756 8.12347 10.236 7.424 10.236V11.236C7.87653 11.236 8.18749 11.3804 8.41571 11.6413L9.16829 10.9827ZM7.424 10.236C6.71336 10.236 6.10227 10.4724 5.65571 10.9827L6.40829 11.6413C6.63373 11.3836 6.95064 11.236 7.424 11.236V10.236ZM5.66276 10.9749C5.22084 11.4589 5.028 12.0959 5.028 12.824H6.028C6.028 12.2721 6.17116 11.9011 6.40124 11.6491L5.66276 10.9749ZM5.028 12.824V20H6.028V12.824H5.028ZM5.528 19.5H0.2V20.5H5.528V19.5ZM0.7 20V6.464H-0.3V20H0.7ZM0.2 6.964H5.528V5.964H0.2V6.964ZM5.028 6.464V8.528H6.028V6.464H5.028ZM5.94722 8.80049C6.3187 8.22899 6.81205 7.76262 7.43531 7.40025L6.93269 6.53575C6.17995 6.97338 5.5693 7.54701 5.10878 8.25551L5.94722 8.80049ZM7.43101 7.40273C8.04683 7.05283 8.79047 6.868 9.68 6.868V5.868C8.64953 5.868 7.72917 6.08317 6.937 6.53327L7.43101 7.40273ZM29.9664 14.168V14.668H30.4L30.4614 14.2387L29.9664 14.168ZM21.3984 14.168V13.668H20.863L20.8995 14.2022L21.3984 14.168ZM24.1104 15.128V14.628H23.7971L23.6605 14.9099L24.1104 15.128ZM29.7504 15.128L30.2407 15.2261L30.3603 14.628H29.7504V15.128ZM28.5264 17.72L28.1383 17.4047L28.1376 17.4056L28.5264 17.72ZM26.1984 19.52L26.4094 19.9733L26.4127 19.9717L26.1984 19.52ZM19.5264 19.328L19.2893 19.7682L19.2921 19.7697L19.5264 19.328ZM17.0784 16.928L16.6394 17.1675L16.6438 17.1753L17.0784 16.928ZM17.0784 9.56L16.6422 9.31549L16.641 9.31775L17.0784 9.56ZM19.5264 7.136L19.2921 6.69426L19.2893 6.69576L19.5264 7.136ZM26.7024 7.136L26.4653 7.57631L26.4734 7.58049L26.7024 7.136ZM29.1504 9.488L28.7146 9.73315L28.7175 9.73825L29.1504 9.488ZM24.6384 11.84V12.34H25.1384V11.84H24.6384ZM24.2064 10.832L23.8863 11.2161L23.8928 11.2215L23.8994 11.2267L24.2064 10.832ZM21.4704 11.84L20.9779 11.7536L20.875 12.34H21.4704V11.84ZM29.5384 13.112C29.5384 13.4583 29.5158 13.7866 29.4714 14.0973L30.4614 14.2387C30.513 13.8774 30.5384 13.5017 30.5384 13.112H29.5384ZM29.9664 13.668H21.3984V14.668H29.9664V13.668ZM20.8995 14.2022C20.9431 14.8383 21.1015 15.3966 21.4407 15.8026C21.7969 16.2289 22.2954 16.42 22.8624 16.42V15.42C22.5334 15.42 22.3398 15.3191 22.2081 15.1614C22.0593 14.9834 21.9336 14.6657 21.8972 14.1338L20.8995 14.2022ZM22.8624 16.42C23.2289 16.42 23.5734 16.3351 23.8743 16.1442C24.1746 15.9536 24.3996 15.6776 24.5603 15.3461L23.6605 14.9099C23.5652 15.1064 23.4542 15.2264 23.3385 15.2998C23.2233 15.3729 23.0718 15.42 22.8624 15.42V16.42ZM24.1104 15.628H29.7504V14.628H24.1104V15.628ZM29.2601 15.0299C29.0842 15.9094 28.7117 16.699 28.1383 17.4047L28.9144 18.0353C29.5891 17.205 30.0326 16.2666 30.2407 15.2261L29.2601 15.0299ZM28.1376 17.4056C27.5804 18.0948 26.8658 18.6498 25.984 19.0683L26.4127 19.9717C27.4189 19.4942 28.2564 18.8492 28.9152 18.0344L28.1376 17.4056ZM25.9874 19.0667C25.1315 19.4651 24.1804 19.668 23.1264 19.668V20.668C24.3123 20.668 25.4093 20.4389 26.4094 19.9733L25.9874 19.0667ZM23.1264 19.668C21.8537 19.668 20.7359 19.4035 19.7606 18.8863L19.2921 19.7697C20.4289 20.3725 21.711 20.668 23.1264 20.668V19.668ZM19.7634 18.8878C18.8072 18.3729 18.0591 17.6402 17.5129 16.6807L16.6438 17.1753C17.2816 18.2958 18.1656 19.1631 19.2893 19.7682L19.7634 18.8878ZM17.5173 16.6886C16.9877 15.7176 16.7144 14.5707 16.7144 13.232H15.7144C15.7144 14.7093 16.017 16.0264 16.6394 17.1674L17.5173 16.6886ZM16.7144 13.232C16.7144 11.8931 16.9878 10.7555 17.5158 9.80225L16.641 9.31775C16.017 10.4445 15.7144 11.7549 15.7144 13.232H16.7144ZM17.5145 9.8045C18.0613 8.82915 18.8092 8.09005 19.7634 7.57624L19.2893 6.69576C18.1635 7.30195 17.2794 8.17885 16.6422 9.3155L17.5145 9.8045ZM19.7606 7.57773C20.7359 7.06054 21.8537 6.796 23.1264 6.796V5.796C21.711 5.796 20.4289 6.09145 19.2921 6.69427L19.7606 7.57773ZM23.1264 6.796C24.3992 6.796 25.5077 7.06059 26.4653 7.57624L26.9394 6.69576C25.817 6.09141 24.5416 5.796 23.1264 5.796V6.796ZM26.4734 7.58049C27.4435 8.08022 28.1871 8.79538 28.7146 9.73313L29.5862 9.24287C28.9616 8.13262 28.0733 7.27978 26.9314 6.69151L26.4734 7.58049ZM28.7175 9.73825C29.2583 10.6737 29.5384 11.7922 29.5384 13.112H30.5384C30.5384 11.6478 30.2264 10.3503 29.5832 9.23775L28.7175 9.73825ZM25.1384 11.84C25.1384 11.2767 24.9509 10.7777 24.5133 10.4373L23.8994 11.2267C24.0378 11.3343 24.1384 11.5073 24.1384 11.84H25.1384ZM24.5265 10.4479C24.1352 10.1218 23.6565 9.972 23.1264 9.972V10.972C23.4602 10.972 23.7016 11.0622 23.8863 11.2161L24.5265 10.4479ZM23.1264 9.972C22.5755 9.972 22.0766 10.1058 21.6859 10.4285C21.294 10.7523 21.0723 11.2154 20.9779 11.7536L21.9629 11.9264C22.0284 11.5526 22.1627 11.3317 22.3228 11.1995C22.4841 11.0662 22.7333 10.972 23.1264 10.972V9.972ZM21.4704 12.34H24.6384V11.34H21.4704V12.34ZM41.9954 20L41.5802 20.2786L41.7288 20.5H41.9954V20ZM37.0514 12.632L37.4666 12.3534L36.5514 10.9895V12.632H37.0514ZM37.0514 20V20.5H37.5514V20H37.0514ZM31.7234 20H31.2234V20.5H31.7234V20ZM31.7234 3.008V2.508H31.2234V3.008H31.7234ZM37.0514 3.008H37.5514V2.508H37.0514V3.008ZM37.0514 10.16H36.5514V11.7821L37.4647 10.4415L37.0514 10.16ZM41.9234 3.008V2.508H41.6591L41.5102 2.7265L41.9234 3.008ZM47.9474 3.008L48.3533 3.30009L48.9234 2.508H47.9474V3.008ZM42.0914 11.144L41.6856 10.8519L41.4776 11.1409L41.6827 11.432L42.0914 11.144ZM48.3314 20V20.5H49.2954L48.7402 19.712L48.3314 20ZM42.4106 19.7214L37.4666 12.3534L36.6362 12.9106L41.5802 20.2786L42.4106 19.7214ZM36.5514 12.632V20H37.5514V12.632H36.5514ZM37.0514 19.5H31.7234V20.5H37.0514V19.5ZM32.2234 20V3.008H31.2234V20H32.2234ZM31.7234 3.508H37.0514V2.508H31.7234V3.508ZM36.5514 3.008V10.16H37.5514V3.008H36.5514ZM37.4647 10.4415L42.3367 3.2895L41.5102 2.7265L36.6382 9.8785L37.4647 10.4415ZM41.9234 3.508H47.9474V2.508H41.9234V3.508ZM47.5416 2.71591L41.6856 10.8519L42.4973 11.4361L48.3533 3.30009L47.5416 2.71591ZM41.6827 11.432L47.9227 20.288L48.7402 19.712L42.5002 10.856L41.6827 11.432ZM48.3314 19.5H41.9954V20.5H48.3314V19.5ZM50.2966 4.64L50.6281 4.2657L50.6281 4.2657L50.2966 4.64ZM50.2966 0.871999L50.6282 1.24634L50.634 1.24101L50.2966 0.871999ZM54.7366 0.871999L54.3992 1.24106L54.4051 1.24629L54.7366 0.871999ZM54.7366 4.64L54.4051 4.2657L54.4051 4.2657L54.7366 4.64ZM55.1686 6.464H55.6686V5.964H55.1686V6.464ZM55.1686 20V20.5H55.6686V20H55.1686ZM49.8406 20H49.3406V20.5H49.8406V20ZM49.8406 6.464V5.964H49.3406V6.464H49.8406ZM52.5286 4.884C51.6922 4.884 51.0762 4.66252 50.6281 4.2657L49.9651 5.01429C50.6371 5.60948 51.509 5.884 52.5286 5.884V4.884ZM50.6281 4.2657C50.1759 3.86517 49.9566 3.37773 49.9566 2.768H48.9566C48.9566 3.66227 49.2973 4.42282 49.9651 5.01429L50.6281 4.2657ZM49.9566 2.768C49.9566 2.13877 50.1785 1.64455 50.6281 1.24629L49.9651 0.497705C49.2947 1.09145 48.9566 1.86122 48.9566 2.768H49.9566ZM50.634 1.24101C51.0823 0.831112 51.6963 0.603999 52.5286 0.603999V-0.396001C51.505 -0.396001 50.6309 -0.111115 49.9592 0.502984L50.634 1.24101ZM52.5286 0.603999C53.3424 0.603999 53.9493 0.829656 54.3992 1.24101L55.074 0.502984C54.4039 -0.109659 53.5389 -0.396001 52.5286 -0.396001V0.603999ZM54.4051 1.24629C54.8547 1.64455 55.0766 2.13877 55.0766 2.768H56.0766C56.0766 1.86122 55.7385 1.09145 55.0681 0.497705L54.4051 1.24629ZM55.0766 2.768C55.0766 3.37773 54.8573 3.86517 54.4051 4.2657L55.0681 5.01429C55.7359 4.42282 56.0766 3.66227 56.0766 2.768H55.0766ZM54.4051 4.2657C53.9555 4.6639 53.3465 4.884 52.5286 4.884V5.884C53.5348 5.884 54.3977 5.6081 55.0681 5.01429L54.4051 4.2657ZM54.6686 6.464V20H55.6686V6.464H54.6686ZM55.1686 19.5H49.8406V20.5H55.1686V19.5ZM50.3406 20V6.464H49.3406V20H50.3406ZM49.8406 6.964H55.1686V5.964H49.8406V6.964ZM70.727 11.768L71.1606 12.0169L71.1626 12.0135L70.727 11.768ZM68.519 13.832L68.2867 13.3892L68.2837 13.3908L68.519 13.832ZM62.903 14.6V14.1H62.403V14.6H62.903ZM62.903 20V20.5H63.403V20H62.903ZM57.575 20H57.075V20.5H57.575V20ZM57.575 3.008V2.508H57.075V3.008H57.575ZM69.791 4.592L69.4454 4.95333L69.448 4.95579L69.791 4.592ZM62.903 7.28V6.78H62.403V7.28H62.903ZM62.903 10.4H62.403V10.9H62.903V10.4ZM70.971 8.84C70.971 9.83144 70.7426 10.722 70.2914 11.5225L71.1626 12.0135C71.7034 11.054 71.971 9.99256 71.971 8.84H70.971ZM70.2934 11.5191C69.8497 12.292 69.1878 12.9165 68.2867 13.3892L68.7513 14.2748C69.8022 13.7235 70.6124 12.972 71.1606 12.0169L70.2934 11.5191ZM68.2837 13.3908C67.4128 13.8553 66.3302 14.1 65.015 14.1V15.1C66.4518 15.1 67.7052 14.8327 68.7543 14.2732L68.2837 13.3908ZM65.015 14.1H62.903V15.1H65.015V14.1ZM62.403 14.6V20H63.403V14.6H62.403ZM62.903 19.5H57.575V20.5H62.903V19.5ZM58.075 20V3.008H57.075V20H58.075ZM57.575 3.508H65.015V2.508H57.575V3.508ZM65.015 3.508C67.0136 3.508 68.4638 4.01444 69.4454 4.95332L70.1366 4.23068C68.9102 3.05756 67.1764 2.508 65.015 2.508V3.508ZM69.448 4.95579C70.4521 5.90253 70.971 7.17855 70.971 8.84H71.971C71.971 6.94944 71.3699 5.39347 70.134 4.2282L69.448 4.95579ZM64.415 10.9C65.0369 10.9 65.5963 10.7541 65.9998 10.3739C66.409 9.9885 66.571 9.44496 66.571 8.84H65.571C65.571 9.27504 65.457 9.5115 65.3142 9.64605C65.1657 9.78589 64.8971 9.9 64.415 9.9V10.9ZM66.571 8.84C66.571 8.23504 66.409 7.6915 65.9998 7.30605C65.5963 6.92589 65.0369 6.78 64.415 6.78V7.78C64.8971 7.78 65.1657 7.89411 65.3142 8.03394C65.457 8.1685 65.571 8.40496 65.571 8.84H66.571ZM64.415 6.78H62.903V7.78H64.415V6.78ZM62.403 7.28V10.4H63.403V7.28H62.403ZM62.903 10.9H64.415V9.9H62.903V10.9ZM75.9209 19.328L76.1498 18.8834L75.9209 19.328ZM73.3529 16.928L72.9196 17.1775L72.9242 17.1852L73.3529 16.928ZM73.3529 9.56L72.9225 9.30563L72.9213 9.30765L73.3529 9.56ZM75.9209 7.136L76.1498 7.58057L76.1498 7.58057L75.9209 7.136ZM83.2649 7.136L83.0361 7.58057L83.0361 7.58057L83.2649 7.136ZM85.8089 9.56L85.3756 9.80952L85.3802 9.81725L85.8089 9.56ZM85.8089 16.928L85.3785 16.6736L85.3773 16.6757L85.8089 16.928ZM83.2649 19.328L83.0361 18.8834L83.0361 18.8834L83.2649 19.328ZM80.8409 14.984L81.2173 15.3133L81.2238 15.3056L80.8409 14.984ZM80.8409 11.504L80.458 11.8257L80.4646 11.8333L80.8409 11.504ZM78.3449 11.504L78.7213 11.8333L78.7278 11.8256L78.3449 11.504ZM78.3209 14.984L77.9305 15.2963L77.9374 15.305L77.9446 15.3133L78.3209 14.984ZM79.5929 19.668C78.3035 19.668 77.1594 19.4031 76.1498 18.8834L75.6921 19.7726C76.8585 20.3729 78.1623 20.668 79.5929 20.668V19.668ZM76.1498 18.8834C75.1438 18.3656 74.3573 17.6302 73.7817 16.6708L72.9242 17.1852C73.5965 18.3058 74.5221 19.1704 75.6921 19.7726L76.1498 18.8834ZM73.7862 16.6785C73.2283 15.7095 72.9409 14.5662 72.9409 13.232H71.9409C71.9409 14.7138 72.2615 16.0345 72.9196 17.1775L73.7862 16.6785ZM72.9409 13.232C72.9409 11.8976 73.2284 10.7637 73.7846 9.81235L72.9213 9.30765C72.2615 10.4363 71.9409 11.7504 71.9409 13.232H72.9409ZM73.7834 9.81436C74.3596 8.8393 75.1458 8.09733 76.1498 7.58057L75.6921 6.69143C74.5201 7.29467 73.5943 8.1687 72.9225 9.30563L73.7834 9.81436ZM76.1498 7.58057C77.1594 7.0609 78.3035 6.796 79.5929 6.796V5.796C78.1623 5.796 76.8585 6.0911 75.6921 6.69143L76.1498 7.58057ZM79.5929 6.796C80.8823 6.796 82.0265 7.0609 83.0361 7.58057L83.4938 6.69143C82.3274 6.0911 81.0235 5.796 79.5929 5.796V6.796ZM83.0361 7.58057C84.039 8.09675 84.8158 8.83719 85.3756 9.80948L86.2422 9.31052C85.5861 8.1708 84.6669 7.29524 83.4938 6.69143L83.0361 7.58057ZM85.3802 9.81725C85.9505 10.7678 86.2449 11.8998 86.2449 13.232H87.2449C87.2449 11.7482 86.9154 10.4322 86.2377 9.30275L85.3802 9.81725ZM86.2449 13.232C86.2449 14.564 85.9506 15.7055 85.3785 16.6736L86.2394 17.1824C86.9153 16.0385 87.2449 14.716 87.2449 13.232H86.2449ZM85.3773 16.6757C84.818 17.6322 84.041 18.3662 83.0361 18.8834L83.4938 19.7726C84.6649 19.1698 85.5838 18.3038 86.2406 17.1803L85.3773 16.6757ZM83.0361 18.8834C82.0265 19.4031 80.8823 19.668 79.5929 19.668V20.668C81.0235 20.668 82.3274 20.3729 83.4938 19.7726L83.0361 18.8834ZM79.5929 16.06C80.2378 16.06 80.7894 15.8022 81.2172 15.3133L80.4646 14.6547C80.2205 14.9338 79.9401 15.06 79.5929 15.06V16.06ZM81.2238 15.3056C81.664 14.7815 81.8449 14.0639 81.8449 13.232H80.8449C80.8449 13.9361 80.6899 14.3865 80.4581 14.6624L81.2238 15.3056ZM81.8449 13.232C81.8449 12.4021 81.6648 11.6863 81.2172 11.1747L80.4646 11.8333C80.689 12.0897 80.8449 12.5259 80.8449 13.232H81.8449ZM81.2238 11.1824C80.7986 10.6762 80.2454 10.404 79.5929 10.404V11.404C79.9325 11.404 80.2113 11.5318 80.4581 11.8256L81.2238 11.1824ZM79.5929 10.404C78.9405 10.404 78.3873 10.6762 77.9621 11.1824L78.7278 11.8256C78.9746 11.5318 79.2534 11.404 79.5929 11.404V10.404ZM77.9686 11.1747C77.521 11.6863 77.3409 12.4021 77.3409 13.232H78.3409C78.3409 12.5259 78.4968 12.0897 78.7212 11.8333L77.9686 11.1747ZM77.3409 13.232C77.3409 14.0592 77.5118 14.773 77.9305 15.2963L78.7114 14.6717C78.4901 14.395 78.3409 13.9408 78.3409 13.232H77.3409ZM77.9446 15.3133C78.376 15.8062 78.9373 16.06 79.5929 16.06V15.06C79.2245 15.06 78.9379 14.9298 78.6972 14.6547L77.9446 15.3133ZM88.4188 9.536L87.9662 9.32343L87.9648 9.32647L88.4188 9.536ZM90.4348 7.136L90.7048 7.55688L90.7103 7.55323L90.4348 7.136ZM95.5468 6.848L95.2928 7.27868L95.2992 7.28249L95.3058 7.28611L95.5468 6.848ZM97.0108 8.312L96.5705 8.54905L97.5108 8.312H97.0108ZM97.0108 2.24V1.74H96.5108V2.24H97.0108ZM102.339 2.24H102.839V1.74H102.339V2.24ZM102.339 20V20.5H102.839V20H102.339ZM97.0108 20H96.5108V20.5H97.0108V20ZM97.0108 18.152H97.5108L96.5705 17.9149L97.0108 18.152ZM95.5468 19.64L95.7924 20.0755L95.796 20.0735L95.5468 19.64ZM90.4348 19.352L90.1592 19.7693L90.1648 19.7728L90.4348 19.352ZM88.4188 16.952L87.9635 17.1589L87.9674 17.1672L88.4188 16.952ZM96.4828 11.552L96.8507 11.2135L96.8507 11.2135L96.4828 11.552ZM93.6508 11.552L93.2828 11.2135L93.2828 11.2135L93.6508 11.552ZM88.1988 13.232C88.1988 11.8632 88.4295 10.7059 88.8727 9.74553L87.9648 9.32647C87.448 10.4461 87.1988 11.7528 87.1988 13.232H88.1988ZM88.8713 9.74857C89.3337 8.76407 89.9479 8.04238 90.7047 7.55685L90.1648 6.71515C89.2256 7.31762 88.4958 8.19593 87.9662 9.32343L88.8713 9.74857ZM90.7103 7.55323C91.4732 7.04941 92.3287 6.796 93.2908 6.796V5.796C92.1408 5.796 91.0923 6.10259 90.1592 6.71877L90.7103 7.55323ZM93.2908 6.796C94.1006 6.796 94.7607 6.9649 95.2928 7.27868L95.8007 6.41732C95.0848 5.9951 94.2409 5.796 93.2908 5.796V6.796ZM95.3058 7.28611C95.8641 7.59319 96.2816 8.01257 96.5705 8.54905L97.451 8.07495C97.0679 7.36343 96.5094 6.80681 95.7877 6.40989L95.3058 7.28611ZM97.5108 8.312V2.24H96.5108V8.312H97.5108ZM97.0108 2.74H102.339V1.74H97.0108V2.74ZM101.839 2.24V20H102.839V2.24H101.839ZM102.339 19.5H97.0108V20.5H102.339V19.5ZM97.5108 20V18.152H96.5108V20H97.5108ZM96.5705 17.9149C96.2805 18.4535 95.8603 18.8829 95.2975 19.2065L95.796 20.0735C96.5132 19.6611 97.069 19.0985 97.451 18.389L96.5705 17.9149ZM95.3011 19.2045C94.7674 19.5056 94.1042 19.668 93.2908 19.668V20.668C94.2373 20.668 95.0781 20.4784 95.7924 20.0755L95.3011 19.2045ZM93.2908 19.668C92.3256 19.668 91.4682 19.4209 90.7047 18.9312L90.1648 19.7728C91.0973 20.3711 92.1439 20.668 93.2908 20.668V19.668ZM90.7103 18.9348C89.9479 18.4313 89.3323 17.7059 88.8701 16.7368L87.9674 17.1672C88.4972 18.2781 89.2256 19.1527 90.1592 19.7692L90.7103 18.9348ZM88.8739 16.7451C88.4294 15.7671 88.1988 14.6005 88.1988 13.232H87.1988C87.1988 14.7115 87.4481 16.0249 87.9636 17.1589L88.8739 16.7451ZM97.5348 13.232C97.5348 12.4282 97.3281 11.7324 96.8507 11.2135L96.1148 11.8905C96.3734 12.1716 96.5348 12.5958 96.5348 13.232H97.5348ZM96.8507 11.2135C96.3819 10.7038 95.7732 10.452 95.0668 10.452V11.452C95.5123 11.452 95.8476 11.6002 96.1148 11.8905L96.8507 11.2135ZM95.0668 10.452C94.3603 10.452 93.7516 10.7038 93.2828 11.2135L94.0187 11.8905C94.2859 11.6002 94.6212 11.452 95.0668 11.452V10.452ZM93.2828 11.2135C92.8054 11.7324 92.5988 12.4282 92.5988 13.232H93.5988C93.5988 12.5958 93.7601 12.1716 94.0187 11.8905L93.2828 11.2135ZM92.5988 13.232C92.5988 14.0358 92.8054 14.7316 93.2828 15.2505L94.0187 14.5735C93.7601 14.2924 93.5988 13.8682 93.5988 13.232H92.5988ZM93.2828 15.2505C93.7516 15.7602 94.3603 16.012 95.0668 16.012V15.012C94.6212 15.012 94.2859 14.8638 94.0187 14.5735L93.2828 15.2505ZM95.0668 16.012C95.7732 16.012 96.3819 15.7602 96.8507 15.2505L96.1148 14.5735C95.8476 14.8638 95.5123 15.012 95.0668 15.012V16.012ZM96.8507 15.2505C97.3281 14.7316 97.5348 14.0358 97.5348 13.232H96.5348C96.5348 13.8682 96.3734 14.2924 96.1148 14.5735L96.8507 15.2505Z" fill="white"/>
</svg>
